<?xml version="1.0" encoding="UTF-8" standalone="no"?>
<!-- Generated by IcoMoon.io -->

<svg
   xmlns:dc="http://purl.org/dc/elements/1.1/"
   xmlns:cc="http://creativecommons.org/ns#"
   xmlns:rdf="http://www.w3.org/1999/02/22-rdf-syntax-ns#"
   xmlns:svg="http://www.w3.org/2000/svg"
   xmlns="http://www.w3.org/2000/svg"
   xmlns:sodipodi="http://sodipodi.sourceforge.net/DTD/sodipodi-0.dtd"
   xmlns:inkscape="http://www.inkscape.org/namespaces/inkscape"
   version="1.1"
   width="20"
   height="20"
   viewBox="0 0 20 20"
   id="svg4"
   sodipodi:docname="home.svg"
   inkscape:version="0.92.4 (f8dce91, 2019-08-02)">
  <metadata
     id="metadata10">
    <rdf:RDF>
      <cc:Work
         rdf:about="">
        <dc:format>image/svg+xml</dc:format>
        <dc:type
           rdf:resource="http://purl.org/dc/dcmitype/StillImage" />
      </cc:Work>
    </rdf:RDF>
  </metadata>
  <defs
     id="defs8" />
  <sodipodi:namedview
     pagecolor="#ffffff"
     bordercolor="#666666"
     borderopacity="1"
     objecttolerance="10"
     gridtolerance="10"
     guidetolerance="10"
     inkscape:pageopacity="0"
     inkscape:pageshadow="2"
     inkscape:window-width="1310"
     inkscape:window-height="732"
     id="namedview6"
     showgrid="false"
     inkscape:zoom="11.8"
     inkscape:cx="-0.42372881"
     inkscape:cy="10"
     inkscape:window-x="56"
     inkscape:window-y="0"
     inkscape:window-maximized="1"
     inkscape:current-layer="svg4" />
  <path
     d="M 19.871,10.893814 11.042,1.1358136 C 10.768,0.83281356 10.398,0.66581356 10,0.66581356 c 0,0 0,0 0,0 -0.397,0 -0.767,0.167 -1.042,0.47000004 L 0.129,10.893814 c -0.185,0.205 -0.169,0.521 0.035,0.706 0.096,0.087 0.216,0.129 0.335,0.129 0.136,0 0.272,-0.055 0.371,-0.165 L 2.999,9.2108136 v 8.0180004 c 0,0.827 0.673,1.5 1.5,1.5 h 11 c 0.827,0 1.5,-0.673 1.5,-1.5 V 9.2108136 l 2.129,2.3530004 c 0.185,0.205 0.501,0.221 0.706,0.035 0.205,-0.186 0.221,-0.501 0.035,-0.706 z M 12,17.728814 H 8 v -4.5 c 0,-0.276 0.224,-0.5 0.5,-0.5 h 3 c 0.276,0 0.5,0.224 0.5,0.5 z m 4,-0.5 c 0,0.276 -0.224,0.5 -0.5,0.5 H 13 v -4.5 c 0,-0.827 -0.673,-1.5 -1.5,-1.5 h -3 c -0.827,0 -1.5,0.673 -1.5,1.5 v 4.5 H 4.5 c -0.276,0 -0.5,-0.224 -0.5,-0.5 V 8.1058136 l 5.7,-6.3 c 0.082,-0.091 0.189,-0.141 0.3,-0.141 0.111,0 0.218,0.05 0.3,0.141 l 5.7,6.3 z"
     id="path2"
     inkscape:connector-curvature="0"
     style="fill:#008000" />
</svg>
